<svg width="302" height="105" viewBox="0 0 302 105" fill="none" xmlns="http://www.w3.org/2000/svg">
<path d="M300.5 1L250.5 104H0V1H300.5Z" fill="white" stroke="white"/>
<path d="M30.79 39.412C31.246 39.316 31.75 39.256 32.302 39.232C32.866 39.208 33.322 39.196 33.67 39.196C34.054 39.196 34.51 39.208 35.038 39.232C35.566 39.256 36.07 39.316 36.55 39.412V64C36.07 64.084 35.566 64.138 35.038 64.162C34.51 64.198 34.054 64.216 33.67 64.216C33.322 64.216 32.866 64.198 32.302 64.162C31.75 64.138 31.246 64.084 30.79 64V39.412ZM42.0915 39.52C42.5475 39.412 43.1355 39.334 43.8555 39.286C44.5755 39.226 45.1215 39.196 45.4935 39.196C45.8655 39.196 46.3575 39.208 46.9695 39.232C47.5935 39.256 48.2175 39.316 48.8415 39.412L47.3835 45.964L47.0055 46.09C47.1015 47.11 47.1795 48.268 47.2395 49.564C47.3115 50.848 47.3655 52.132 47.4015 53.416C47.4375 54.7 47.4555 55.84 47.4555 56.836V64C46.9875 64.084 46.5255 64.138 46.0695 64.162C45.6135 64.198 45.2055 64.216 44.8455 64.216C44.4975 64.216 44.0655 64.198 43.5495 64.162C43.0335 64.138 42.5475 64.084 42.0915 64V39.52ZM49.1655 51.112C48.7575 50.188 48.3795 49.282 48.0315 48.394C47.6835 47.506 47.3895 46.714 47.1495 46.018L44.4855 42.94L48.8415 39.412L54.3855 52.264C54.8415 53.32 55.2615 54.328 55.6455 55.288C56.0415 56.248 56.3715 57.064 56.6355 57.736L59.5515 60.886L54.8535 64L49.1655 51.112ZM61.6575 39.412V63.892C61.2015 64 60.6015 64.078 59.8575 64.126C59.1255 64.186 58.5675 64.216 58.1835 64.216C57.8115 64.216 57.3195 64.198 56.7075 64.162C56.1075 64.138 55.4895 64.084 54.8535 64L56.3655 57.79L56.7795 57.664C56.6835 56.548 56.5995 55.324 56.5275 53.992C56.4555 52.66 56.4015 51.376 56.3655 50.14C56.3415 48.904 56.3295 47.872 56.3295 47.044V42.652C56.3295 41.368 56.5875 40.468 57.1035 39.952C57.6315 39.436 58.4475 39.178 59.5515 39.178H61.4235L61.6575 39.412ZM67.1579 39.52C67.6139 39.412 68.2019 39.334 68.9219 39.286C69.6419 39.226 70.1879 39.196 70.5599 39.196C70.9319 39.196 71.4239 39.208 72.0359 39.232C72.6599 39.256 73.2839 39.316 73.9079 39.412L72.4499 45.964L72.0719 46.09C72.1679 47.11 72.2459 48.268 72.3059 49.564C72.3779 50.848 72.4319 52.132 72.4679 53.416C72.5039 54.7 72.5219 55.84 72.5219 56.836V64C72.0539 64.084 71.5919 64.138 71.1359 64.162C70.6799 64.198 70.2719 64.216 69.9119 64.216C69.5639 64.216 69.1319 64.198 68.6159 64.162C68.0999 64.138 67.6139 64.084 67.1579 64V39.52ZM74.2319 51.112C73.8239 50.188 73.4459 49.282 73.0979 48.394C72.7499 47.506 72.4559 46.714 72.2159 46.018L69.5519 42.94L73.9079 39.412L79.4519 52.264C79.9079 53.32 80.3279 54.328 80.7119 55.288C81.1079 56.248 81.4379 57.064 81.7019 57.736L84.6179 60.886L79.9199 64L74.2319 51.112ZM86.7239 39.412V63.892C86.2679 64 85.6679 64.078 84.9239 64.126C84.1919 64.186 83.6339 64.216 83.2499 64.216C82.8779 64.216 82.3859 64.198 81.7739 64.162C81.1739 64.138 80.5559 64.084 79.9199 64L81.4319 57.79L81.8459 57.664C81.7499 56.548 81.6659 55.324 81.5939 53.992C81.5219 52.66 81.4679 51.376 81.4319 50.14C81.4079 48.904 81.3959 47.872 81.3959 47.044V42.652C81.3959 41.368 81.6539 40.468 82.1699 39.952C82.6979 39.436 83.5139 39.178 84.6179 39.178H86.4899L86.7239 39.412ZM92.1883 39.664L92.4403 39.412H97.8583V44.146C97.8583 44.65 97.8643 45.1 97.8763 45.496C97.8883 45.892 97.8943 46.336 97.8943 46.828V56.728C97.8943 57.196 97.8883 57.622 97.8763 58.006C97.8643 58.39 97.8583 58.828 97.8583 59.32V64.108H95.5003C94.4683 64.108 93.6583 63.808 93.0703 63.208C92.4823 62.608 92.1883 61.786 92.1883 60.742V39.664ZM105.814 49.294C105.946 49.642 106.036 50.044 106.084 50.5C106.132 50.956 106.156 51.34 106.156 51.652C106.156 51.976 106.132 52.354 106.084 52.786C106.036 53.218 105.946 53.62 105.814 53.992H100.324C100.024 53.992 99.5983 53.992 99.0463 53.992C98.4943 53.98 97.9243 53.968 97.3363 53.956C96.7603 53.944 96.2803 53.932 95.8963 53.92V49.366C96.2803 49.354 96.7603 49.342 97.3363 49.33C97.9243 49.318 98.4943 49.312 99.0463 49.312C99.5983 49.3 100.024 49.294 100.324 49.294H105.814ZM107.956 39.412C108.052 39.844 108.106 40.252 108.118 40.636C108.142 41.008 108.154 41.356 108.154 41.68C108.154 42.004 108.112 42.406 108.028 42.886C107.956 43.354 107.842 43.804 107.686 44.236H100.324C100.024 44.236 99.5983 44.236 99.0463 44.236C98.4943 44.224 97.9243 44.212 97.3363 44.2C96.7603 44.188 96.2803 44.176 95.8963 44.164V39.412H107.956ZM108.856 59.284C108.856 60.868 108.61 62.068 108.118 62.884C107.626 63.7 106.612 64.108 105.076 64.108H95.8963V59.464C96.6763 59.428 97.4203 59.392 98.1283 59.356C98.8483 59.308 99.6463 59.284 100.522 59.284H108.856ZM130.501 47.026C130.501 48.178 130.279 49.204 129.835 50.104C129.391 50.992 128.833 51.73 128.161 52.318C127.489 52.906 126.811 53.338 126.127 53.614C126.799 53.854 127.357 54.268 127.801 54.856C128.257 55.444 128.623 56.134 128.899 56.926L129.979 59.968C130.183 60.532 130.429 61.042 130.717 61.498C131.017 61.942 131.365 62.32 131.761 62.632C131.389 63.112 130.849 63.514 130.141 63.838C129.445 64.162 128.707 64.324 127.927 64.324C126.895 64.324 126.145 64.048 125.677 63.496C125.209 62.932 124.783 62.098 124.399 60.994L123.103 57.232C122.899 56.608 122.581 56.08 122.149 55.648C121.717 55.204 121.021 54.982 120.061 54.982H116.227V50.68C116.695 50.656 117.271 50.632 117.955 50.608C118.651 50.572 119.311 50.548 119.935 50.536C120.559 50.512 120.997 50.5 121.249 50.5C122.161 50.5 122.857 50.338 123.337 50.014C123.829 49.678 124.165 49.246 124.345 48.718C124.537 48.19 124.633 47.626 124.633 47.026C124.633 46.402 124.537 45.826 124.345 45.298C124.165 44.77 123.829 44.35 123.337 44.038C122.857 43.714 122.161 43.552 121.249 43.552C120.877 43.552 120.469 43.552 120.025 43.552C119.581 43.54 119.095 43.528 118.567 43.516V64C118.087 64.084 117.583 64.138 117.055 64.162C116.539 64.198 116.089 64.216 115.705 64.216C115.369 64.216 114.925 64.198 114.373 64.162C113.821 64.138 113.317 64.084 112.861 64V39.592L113.113 39.34C114.649 39.304 116.125 39.274 117.541 39.25C118.969 39.214 120.367 39.196 121.735 39.196C123.403 39.196 124.897 39.472 126.217 40.024C127.537 40.564 128.581 41.41 129.349 42.562C130.117 43.714 130.501 45.202 130.501 47.026ZM160.344 47.764C160.344 49.636 159.96 51.208 159.192 52.48C158.436 53.74 157.392 54.694 156.06 55.342C154.74 55.978 153.228 56.296 151.524 56.296H146.25V52.084C146.574 52.06 147.072 52.036 147.744 52.012C148.416 51.988 149.07 51.97 149.706 51.958C150.354 51.934 150.798 51.922 151.038 51.922C151.998 51.922 152.724 51.694 153.216 51.238C153.708 50.782 154.038 50.236 154.206 49.6C154.374 48.952 154.458 48.34 154.458 47.764C154.458 47.2 154.374 46.6 154.206 45.964C154.038 45.316 153.708 44.764 153.216 44.308C152.724 43.852 151.998 43.624 151.038 43.624C150.678 43.624 150.318 43.624 149.958 43.624C149.61 43.612 149.19 43.6 148.698 43.588V64C148.218 64.084 147.708 64.138 147.168 64.162C146.64 64.198 146.184 64.216 145.8 64.216C145.452 64.216 144.996 64.198 144.432 64.162C143.88 64.138 143.376 64.084 142.92 64V39.592L143.172 39.34C144.708 39.304 146.142 39.274 147.474 39.25C148.818 39.214 150.168 39.196 151.524 39.196C153.228 39.196 154.74 39.508 156.06 40.132C157.392 40.744 158.436 41.686 159.192 42.958C159.96 44.218 160.344 45.82 160.344 47.764ZM164.083 39.664L164.335 39.412H169.753V44.146C169.753 44.65 169.759 45.1 169.771 45.496C169.783 45.892 169.789 46.336 169.789 46.828V56.728C169.789 57.196 169.783 57.622 169.771 58.006C169.759 58.39 169.753 58.828 169.753 59.32V64.108H167.395C166.363 64.108 165.553 63.808 164.965 63.208C164.377 62.608 164.083 61.786 164.083 60.742V39.664ZM177.709 49.294C177.841 49.642 177.931 50.044 177.979 50.5C178.027 50.956 178.051 51.34 178.051 51.652C178.051 51.976 178.027 52.354 177.979 52.786C177.931 53.218 177.841 53.62 177.709 53.992H172.219C171.919 53.992 171.493 53.992 170.941 53.992C170.389 53.98 169.819 53.968 169.231 53.956C168.655 53.944 168.175 53.932 167.791 53.92V49.366C168.175 49.354 168.655 49.342 169.231 49.33C169.819 49.318 170.389 49.312 170.941 49.312C171.493 49.3 171.919 49.294 172.219 49.294H177.709ZM179.851 39.412C179.947 39.844 180.001 40.252 180.013 40.636C180.037 41.008 180.049 41.356 180.049 41.68C180.049 42.004 180.007 42.406 179.923 42.886C179.851 43.354 179.737 43.804 179.581 44.236H172.219C171.919 44.236 171.493 44.236 170.941 44.236C170.389 44.224 169.819 44.212 169.231 44.2C168.655 44.188 168.175 44.176 167.791 44.164V39.412H179.851ZM180.751 59.284C180.751 60.868 180.505 62.068 180.013 62.884C179.521 63.7 178.507 64.108 176.971 64.108H167.791V59.464C168.571 59.428 169.315 59.392 170.023 59.356C170.743 59.308 171.541 59.284 172.417 59.284H180.751ZM190.282 39.412C190.738 39.34 191.284 39.286 191.92 39.25C192.568 39.214 193.132 39.196 193.612 39.196C194.068 39.196 194.62 39.214 195.268 39.25C195.928 39.286 196.486 39.352 196.942 39.448L204.682 63.622C204.286 63.85 203.77 64.024 203.134 64.144C202.51 64.264 201.928 64.324 201.388 64.324C200.476 64.324 199.762 64.114 199.246 63.694C198.73 63.262 198.298 62.428 197.95 61.192L195.376 52.066C195.1 51.058 194.776 49.87 194.404 48.502C194.044 47.134 193.708 45.856 193.396 44.668H193.18C193.06 45.328 192.898 46.066 192.694 46.882C192.49 47.698 192.274 48.514 192.046 49.33C191.83 50.134 191.626 50.866 191.434 51.526L187.762 64.036C187.402 64.12 187.018 64.174 186.61 64.198C186.202 64.234 185.77 64.252 185.314 64.252C184.882 64.252 184.39 64.216 183.838 64.144C183.298 64.072 182.866 63.976 182.542 63.856L182.326 63.55L190.282 39.412ZM190.714 58.852C190.546 58.852 190.348 58.852 190.12 58.852C189.904 58.84 189.688 58.834 189.472 58.834C189.256 58.822 189.058 58.816 188.878 58.816H185.854L187.6 54.334H190.264C190.432 54.334 190.624 54.334 190.84 54.334C191.056 54.322 191.272 54.316 191.488 54.316C191.704 54.304 191.896 54.298 192.064 54.298H194.692C194.872 54.298 195.064 54.304 195.268 54.316C195.484 54.316 195.7 54.322 195.916 54.334C196.144 54.334 196.342 54.334 196.51 54.334H199.264L200.722 58.816H197.68C197.512 58.816 197.314 58.822 197.086 58.834C196.87 58.834 196.648 58.84 196.42 58.852C196.204 58.852 196.012 58.852 195.844 58.852H190.714ZM220.213 49.204C220.237 48.208 220.135 47.272 219.907 46.396C219.691 45.508 219.295 44.794 218.719 44.254C218.143 43.702 217.321 43.426 216.253 43.426C214.705 43.426 213.601 44.146 212.941 45.586C212.293 47.026 211.969 49.108 211.969 51.832C211.969 54.4 212.395 56.326 213.247 57.61C214.111 58.882 215.329 59.518 216.901 59.518C218.149 59.518 219.271 59.254 220.267 58.726C221.263 58.198 222.181 57.622 223.021 56.998C223.585 57.37 224.137 57.916 224.677 58.636C225.217 59.344 225.547 60.034 225.667 60.706C224.971 61.39 224.107 62.026 223.075 62.614C222.055 63.19 220.927 63.652 219.691 64C218.455 64.36 217.171 64.54 215.839 64.54C213.955 64.54 212.371 64.174 211.087 63.442C209.815 62.698 208.801 61.714 208.045 60.49C207.289 59.254 206.743 57.886 206.407 56.386C206.083 54.874 205.921 53.344 205.921 51.796C205.921 48.772 206.401 46.312 207.361 44.416C208.321 42.508 209.593 41.104 211.177 40.204C212.773 39.304 214.531 38.854 216.451 38.854C218.311 38.854 219.931 39.184 221.311 39.844C222.703 40.504 223.777 41.398 224.533 42.526C225.301 43.654 225.685 44.926 225.685 46.342C225.685 47.47 225.391 48.28 224.803 48.772C224.227 49.264 223.423 49.51 222.391 49.51C221.983 49.51 221.605 49.48 221.257 49.42C220.909 49.36 220.561 49.288 220.213 49.204ZM229.263 39.664L229.515 39.412H234.933V44.146C234.933 44.65 234.939 45.1 234.951 45.496C234.963 45.892 234.969 46.336 234.969 46.828V56.728C234.969 57.196 234.963 57.622 234.951 58.006C234.939 58.39 234.933 58.828 234.933 59.32V64.108H232.575C231.543 64.108 230.733 63.808 230.145 63.208C229.557 62.608 229.263 61.786 229.263 60.742V39.664ZM242.889 49.294C243.021 49.642 243.111 50.044 243.159 50.5C243.207 50.956 243.231 51.34 243.231 51.652C243.231 51.976 243.207 52.354 243.159 52.786C243.111 53.218 243.021 53.62 242.889 53.992H237.399C237.099 53.992 236.673 53.992 236.121 53.992C235.569 53.98 234.999 53.968 234.411 53.956C233.835 53.944 233.355 53.932 232.971 53.92V49.366C233.355 49.354 233.835 49.342 234.411 49.33C234.999 49.318 235.569 49.312 236.121 49.312C236.673 49.3 237.099 49.294 237.399 49.294H242.889ZM245.031 39.412C245.127 39.844 245.181 40.252 245.193 40.636C245.217 41.008 245.229 41.356 245.229 41.68C245.229 42.004 245.187 42.406 245.103 42.886C245.031 43.354 244.917 43.804 244.761 44.236H237.399C237.099 44.236 236.673 44.236 236.121 44.236C235.569 44.224 234.999 44.212 234.411 44.2C233.835 44.188 233.355 44.176 232.971 44.164V39.412H245.031ZM245.931 59.284C245.931 60.868 245.685 62.068 245.193 62.884C244.701 63.7 243.687 64.108 242.151 64.108H232.971V59.464C233.751 59.428 234.495 59.392 235.203 59.356C235.923 59.308 236.721 59.284 237.597 59.284H245.931Z" fill="#FA8AD4"/>
</svg>
