<svg width="55" height="55" viewBox="0 0 55 55" fill="none" xmlns="http://www.w3.org/2000/svg">
<path fill-rule="evenodd" clip-rule="evenodd" d="M46.1821 17.3968C47.8137 18.7091 48.7716 20.6834 48.7926 22.7772L48.7726 41.0508C48.7726 46.0144 44.7489 50.0381 39.7853 50.0381H35.7998C33.3973 50.0381 31.4466 48.0964 31.4357 45.6939V37.4439C31.4357 36.8056 30.9182 36.2881 30.2799 36.2881H24.3016C23.9916 36.2881 23.6946 36.4126 23.4772 36.6337C23.2599 36.8547 23.1405 37.1539 23.1458 37.4638V40.6124C23.1458 41.6029 22.3429 42.4059 21.3523 42.4059C20.3618 42.4059 19.5589 41.6029 19.5589 40.6124V37.4638C19.5589 36.2007 20.0606 34.9893 20.9538 34.0961C21.847 33.2029 23.0584 32.7012 24.3215 32.7012H30.2998C32.9224 32.7121 35.0426 34.8412 35.0426 37.4638V45.6939C35.0426 46.1121 35.3816 46.4512 35.7998 46.4512H39.885C42.8565 46.4512 45.2654 44.0423 45.2654 41.0707V22.8171C45.2508 21.8059 44.7826 20.8548 43.99 20.2265L30.2201 9.24645C28.4837 7.81692 25.9782 7.81692 24.2418 9.24645L19.8179 12.5544C18.998 13.1432 17.856 12.9559 17.2672 12.1359C16.6784 11.316 16.8658 10.174 17.6857 9.58522L22.0498 6.41674C25.0757 3.98446 29.3862 3.98446 32.4121 6.41674L46.1821 17.3968ZM14.7165 46.4312H23.8831V46.4711C24.8737 46.4711 25.6766 47.2741 25.6766 48.2646C25.6766 49.2551 24.8737 50.058 23.8831 50.058H14.7165C9.75746 50.0471 5.74012 46.0297 5.72916 41.0707V22.8171C5.76086 20.7078 6.75095 18.7276 8.41937 17.4367L10.0734 16.2012C10.8522 15.834 11.7821 16.0722 12.2886 16.7685C12.795 17.4649 12.7351 18.4229 12.1458 19.0508L10.5317 20.2464C9.76687 20.8819 9.32194 21.8228 9.31611 22.8171V41.0508C9.33793 44.021 11.7462 46.4204 14.7165 46.4312Z" fill="#130F26"/>
</svg>
