<svg width="53" height="53" viewBox="0 0 53 53" fill="none" xmlns="http://www.w3.org/2000/svg">
<path fill-rule="evenodd" clip-rule="evenodd" d="M26.1042 4.41675H37.2933C42.9085 4.41675 47.4791 8.81129 47.4791 14.215V31.0291C47.4791 31.9676 46.6848 32.7273 45.7115 32.7273C44.7335 32.7273 43.9415 31.9676 43.9415 31.0291V14.215C43.9415 10.6884 40.9595 7.81755 37.2933 7.81755H26.1042C22.4243 7.81755 19.4307 10.6972 19.4307 14.2371V16.293C19.4307 17.2316 18.641 17.9912 17.6631 17.9912C16.6874 17.9912 15.8954 17.2316 15.8954 16.293V14.2371C15.8954 8.82233 20.4752 4.41675 26.1042 4.41675ZM30.0136 22.878C29.684 23.2159 29.2489 23.3837 28.8116 23.3837C28.3831 23.3837 27.9524 23.2203 27.6206 22.8913L26.0032 21.2858C25.3396 20.6255 25.333 19.5501 25.99 18.881C26.6449 18.2118 27.715 18.2074 28.3831 18.8677L30.0026 20.4754C30.6663 21.1334 30.6729 22.2111 30.0136 22.878ZM25.9949 34.1236C25.3356 33.4567 25.3378 32.3813 25.9992 31.7188L29.5152 28.2009H7.21288C6.27895 28.2009 5.52081 27.4391 5.52081 26.5005C5.52081 25.562 6.27895 24.7979 7.21288 24.7979H33.6136C34.2992 24.7979 34.9167 25.2131 35.1782 25.8513C35.4397 26.4873 35.2924 27.2204 34.809 27.7063L28.3879 34.128C28.0583 34.4571 27.6254 34.6227 27.1925 34.6227C26.7596 34.6227 26.3245 34.4571 25.9949 34.1236ZM45.7103 37.0627C44.7347 37.0627 43.9427 37.8245 43.9427 38.7631C43.9427 42.303 40.9491 45.1826 37.2692 45.1826H26.0801C22.4162 45.1826 19.4319 42.3118 19.4319 38.7851V36.7071C19.4319 35.7686 18.6399 35.0067 17.6642 35.0067C16.6885 35.0067 15.8965 35.7686 15.8965 36.7071V38.7851C15.8965 44.1889 20.4649 48.5834 26.0801 48.5834H37.2692C42.8982 48.5834 47.478 44.1778 47.478 38.7631C47.478 37.8245 46.686 37.0627 45.7103 37.0627Z" fill="#130F26"/>
</svg>
