<svg width="301" height="103" viewBox="0 0 301 103" fill="none" xmlns="http://www.w3.org/2000/svg">
<path d="M300.5 0L250.5 103H0V0H300.5Z" fill="#FA8AD4"/>
<path d="M30.808 38.412C31.276 38.328 31.786 38.274 32.338 38.25C32.89 38.214 33.346 38.196 33.706 38.196C34.09 38.196 34.546 38.214 35.074 38.25C35.602 38.274 36.106 38.328 36.586 38.412V63C36.106 63.084 35.602 63.138 35.074 63.162C34.546 63.198 34.09 63.216 33.706 63.216C33.346 63.216 32.89 63.198 32.338 63.162C31.786 63.138 31.276 63.084 30.808 63V38.412ZM49.2358 50.112C48.8398 49.188 48.4678 48.282 48.1198 47.394C47.7718 46.506 47.4718 45.72 47.2198 45.036L47.0758 45.09C47.1718 46.11 47.2498 47.268 47.3098 48.564C47.3818 49.848 47.4358 51.132 47.4718 52.416C47.5078 53.7 47.5258 54.84 47.5258 55.836V63C47.0578 63.084 46.5958 63.138 46.1398 63.162C45.6838 63.198 45.2758 63.216 44.9158 63.216C44.5678 63.216 44.1298 63.198 43.6018 63.162C43.0858 63.138 42.6058 63.084 42.1618 63V38.52C42.6058 38.412 43.1938 38.334 43.9258 38.286C44.6578 38.226 45.2038 38.196 45.5638 38.196C45.9358 38.196 46.4278 38.214 47.0398 38.25C47.6518 38.274 48.2758 38.328 48.9118 38.412L54.4558 51.264C54.9118 52.32 55.3318 53.328 55.7158 54.288C56.1118 55.248 56.4418 56.058 56.7058 56.718L56.8498 56.664C56.7538 55.548 56.6698 54.324 56.5978 52.992C56.5378 51.66 56.4898 50.376 56.4538 49.14C56.4178 47.904 56.3998 46.872 56.3998 46.044V41.652C56.3998 40.368 56.6578 39.468 57.1738 38.952C57.7018 38.436 58.5178 38.178 59.6218 38.178H61.4938L61.7278 38.412V62.892C61.2718 63 60.6718 63.078 59.9278 63.126C59.1958 63.186 58.6378 63.216 58.2538 63.216C57.8818 63.216 57.3898 63.198 56.7778 63.162C56.1658 63.138 55.5478 63.084 54.9238 63L49.2358 50.112ZM74.3022 50.112C73.9062 49.188 73.5342 48.282 73.1862 47.394C72.8382 46.506 72.5382 45.72 72.2862 45.036L72.1422 45.09C72.2382 46.11 72.3162 47.268 72.3762 48.564C72.4482 49.848 72.5022 51.132 72.5382 52.416C72.5742 53.7 72.5922 54.84 72.5922 55.836V63C72.1242 63.084 71.6622 63.138 71.2062 63.162C70.7502 63.198 70.3422 63.216 69.9822 63.216C69.6342 63.216 69.1962 63.198 68.6682 63.162C68.1522 63.138 67.6722 63.084 67.2282 63V38.52C67.6722 38.412 68.2602 38.334 68.9922 38.286C69.7242 38.226 70.2702 38.196 70.6302 38.196C71.0022 38.196 71.4942 38.214 72.1062 38.25C72.7182 38.274 73.3422 38.328 73.9782 38.412L79.5222 51.264C79.9782 52.32 80.3982 53.328 80.7822 54.288C81.1782 55.248 81.5082 56.058 81.7722 56.718L81.9162 56.664C81.8202 55.548 81.7362 54.324 81.6642 52.992C81.6042 51.66 81.5562 50.376 81.5202 49.14C81.4842 47.904 81.4662 46.872 81.4662 46.044V41.652C81.4662 40.368 81.7242 39.468 82.2402 38.952C82.7682 38.436 83.5842 38.178 84.6882 38.178H86.5602L86.7942 38.412V62.892C86.3382 63 85.7382 63.078 84.9942 63.126C84.2622 63.186 83.7042 63.216 83.3202 63.216C82.9482 63.216 82.4562 63.198 81.8442 63.162C81.2322 63.138 80.6142 63.084 79.9902 63L74.3022 50.112ZM108.927 58.284C108.927 59.868 108.675 61.068 108.171 61.884C107.679 62.7 106.671 63.108 105.147 63.108H95.5706C94.5386 63.108 93.7286 62.808 93.1406 62.208C92.5526 61.608 92.2586 60.786 92.2586 59.742V38.664L92.5106 38.412H108.027C108.111 38.844 108.165 39.252 108.189 39.636C108.213 40.008 108.225 40.356 108.225 40.68C108.225 41.004 108.183 41.406 108.099 41.886C108.027 42.354 107.913 42.804 107.757 43.236H100.395C100.131 43.236 99.7706 43.236 99.3146 43.236C98.8706 43.224 98.4086 43.212 97.9286 43.2C97.9286 43.692 97.9346 44.136 97.9466 44.532C97.9586 44.916 97.9646 45.348 97.9646 45.828V48.33C98.4446 48.318 98.9066 48.312 99.3506 48.312C99.7946 48.3 100.143 48.294 100.395 48.294H105.885C106.005 48.642 106.089 49.044 106.137 49.5C106.197 49.956 106.227 50.34 106.227 50.652C106.227 50.976 106.197 51.354 106.137 51.786C106.089 52.218 106.005 52.62 105.885 52.992H100.395C100.143 52.992 99.7946 52.992 99.3506 52.992C98.9066 52.98 98.4446 52.968 97.9646 52.956V55.728C97.9646 56.196 97.9586 56.628 97.9466 57.024C97.9346 57.408 97.9286 57.84 97.9286 58.32V58.356C98.3366 58.332 98.7566 58.314 99.1886 58.302C99.6206 58.29 100.089 58.284 100.593 58.284H108.927ZM130.571 46.026C130.571 47.178 130.349 48.204 129.905 49.104C129.461 49.992 128.903 50.736 128.231 51.336C127.559 51.924 126.881 52.35 126.197 52.614C126.869 52.854 127.427 53.268 127.871 53.856C128.327 54.444 128.693 55.134 128.969 55.926L130.049 58.968C130.457 60.132 131.051 61.02 131.831 61.632C131.459 62.112 130.919 62.514 130.211 62.838C129.503 63.162 128.765 63.324 127.997 63.324C126.965 63.324 126.215 63.048 125.747 62.496C125.279 61.932 124.853 61.098 124.469 59.994L123.173 56.232C122.969 55.608 122.651 55.08 122.219 54.648C121.787 54.204 121.091 53.982 120.131 53.982H118.637V63C118.157 63.084 117.659 63.138 117.143 63.162C116.627 63.198 116.171 63.216 115.775 63.216C115.427 63.216 114.983 63.198 114.443 63.162C113.903 63.138 113.399 63.084 112.931 63V38.592L113.183 38.34C114.719 38.304 116.195 38.274 117.611 38.25C119.039 38.214 120.437 38.196 121.805 38.196C123.473 38.196 124.967 38.472 126.287 39.024C127.619 39.576 128.663 40.428 129.419 41.58C130.187 42.732 130.571 44.214 130.571 46.026ZM118.637 42.516V49.572C119.201 49.548 119.729 49.53 120.221 49.518C120.725 49.506 121.091 49.5 121.319 49.5C122.231 49.5 122.927 49.338 123.407 49.014C123.899 48.678 124.235 48.246 124.415 47.718C124.607 47.19 124.703 46.626 124.703 46.026C124.703 45.402 124.607 44.826 124.415 44.298C124.235 43.77 123.899 43.35 123.407 43.038C122.927 42.714 122.231 42.552 121.319 42.552C120.947 42.552 120.533 42.552 120.077 42.552C119.633 42.552 119.153 42.54 118.637 42.516ZM160.414 46.764C160.414 48.648 160.03 50.226 159.262 51.498C158.506 52.758 157.462 53.706 156.13 54.342C154.81 54.978 153.298 55.296 151.594 55.296H148.768V63C148.288 63.084 147.778 63.138 147.238 63.162C146.71 63.198 146.254 63.216 145.87 63.216C145.522 63.216 145.072 63.198 144.52 63.162C143.968 63.138 143.458 63.084 142.99 63V38.592L143.242 38.34C144.778 38.304 146.212 38.274 147.544 38.25C148.888 38.214 150.238 38.196 151.594 38.196C153.298 38.196 154.81 38.508 156.13 39.132C157.462 39.744 158.506 40.686 159.262 41.958C160.03 43.218 160.414 44.82 160.414 46.764ZM148.768 42.588V50.976C149.272 50.964 149.74 50.952 150.172 50.94C150.616 50.928 150.928 50.922 151.108 50.922C152.068 50.922 152.794 50.694 153.286 50.238C153.778 49.782 154.108 49.236 154.276 48.6C154.444 47.952 154.528 47.34 154.528 46.764C154.528 46.2 154.444 45.6 154.276 44.964C154.108 44.316 153.778 43.764 153.286 43.308C152.794 42.852 152.068 42.624 151.108 42.624C150.748 42.624 150.388 42.624 150.028 42.624C149.668 42.612 149.248 42.6 148.768 42.588ZM180.821 58.284C180.821 59.868 180.569 61.068 180.065 61.884C179.573 62.7 178.565 63.108 177.041 63.108H167.465C166.433 63.108 165.623 62.808 165.035 62.208C164.447 61.608 164.153 60.786 164.153 59.742V38.664L164.405 38.412H179.921C180.005 38.844 180.059 39.252 180.083 39.636C180.107 40.008 180.119 40.356 180.119 40.68C180.119 41.004 180.077 41.406 179.993 41.886C179.921 42.354 179.807 42.804 179.651 43.236H172.289C172.025 43.236 171.665 43.236 171.209 43.236C170.765 43.224 170.303 43.212 169.823 43.2C169.823 43.692 169.829 44.136 169.841 44.532C169.853 44.916 169.859 45.348 169.859 45.828V48.33C170.339 48.318 170.801 48.312 171.245 48.312C171.689 48.3 172.037 48.294 172.289 48.294H177.779C177.899 48.642 177.983 49.044 178.031 49.5C178.091 49.956 178.121 50.34 178.121 50.652C178.121 50.976 178.091 51.354 178.031 51.786C177.983 52.218 177.899 52.62 177.779 52.992H172.289C172.037 52.992 171.689 52.992 171.245 52.992C170.801 52.98 170.339 52.968 169.859 52.956V55.728C169.859 56.196 169.853 56.628 169.841 57.024C169.829 57.408 169.823 57.84 169.823 58.32V58.356C170.231 58.332 170.651 58.314 171.083 58.302C171.515 58.29 171.983 58.284 172.487 58.284H180.821ZM190.784 57.852C190.592 57.852 190.364 57.846 190.1 57.834C189.848 57.822 189.602 57.816 189.362 57.816L187.832 63.036C187.472 63.12 187.082 63.174 186.662 63.198C186.254 63.234 185.828 63.252 185.384 63.252C184.952 63.252 184.46 63.216 183.908 63.144C183.368 63.084 182.936 62.988 182.612 62.856L182.396 62.55L190.352 38.412C190.808 38.34 191.354 38.286 191.99 38.25C192.638 38.214 193.202 38.196 193.682 38.196C194.138 38.196 194.69 38.22 195.338 38.268C195.986 38.304 196.544 38.364 197.012 38.448L204.752 62.622C204.356 62.85 203.84 63.024 203.204 63.144C202.58 63.264 201.998 63.324 201.458 63.324C200.546 63.324 199.832 63.114 199.316 62.694C198.8 62.262 198.368 61.428 198.02 60.192L197.336 57.816C197.108 57.816 196.862 57.822 196.598 57.834C196.334 57.846 196.106 57.852 195.914 57.852H190.784ZM191.504 50.526L190.694 53.316C190.922 53.316 191.168 53.316 191.432 53.316C191.696 53.304 191.93 53.298 192.134 53.298H194.762C194.942 53.298 195.146 53.304 195.374 53.316C195.614 53.316 195.848 53.316 196.076 53.316L195.446 51.066C195.17 50.058 194.846 48.87 194.474 47.502C194.102 46.134 193.766 44.856 193.466 43.668H193.25C193.13 44.34 192.968 45.084 192.764 45.9C192.56 46.716 192.344 47.532 192.116 48.348C191.9 49.152 191.696 49.878 191.504 50.526ZM220.248 48.204C220.272 47.208 220.17 46.272 219.942 45.396C219.726 44.508 219.324 43.794 218.736 43.254C218.16 42.702 217.344 42.426 216.288 42.426C214.74 42.426 213.636 43.146 212.976 44.586C212.328 46.014 212.004 48.096 212.004 50.832C212.004 53.388 212.43 55.308 213.282 56.592C214.146 57.876 215.364 58.518 216.936 58.518C218.184 58.518 219.306 58.254 220.302 57.726C221.31 57.198 222.228 56.622 223.056 55.998C223.62 56.382 224.166 56.928 224.694 57.636C225.234 58.344 225.57 59.034 225.702 59.706C225.006 60.39 224.142 61.026 223.11 61.614C222.09 62.19 220.962 62.652 219.726 63C218.49 63.36 217.206 63.54 215.874 63.54C213.99 63.54 212.406 63.174 211.122 62.442C209.85 61.698 208.836 60.714 208.08 59.49C207.324 58.254 206.778 56.886 206.442 55.386C206.118 53.874 205.956 52.344 205.956 50.796C205.956 47.784 206.43 45.324 207.378 43.416C208.338 41.508 209.616 40.104 211.212 39.204C212.808 38.304 214.566 37.854 216.486 37.854C218.346 37.854 219.966 38.184 221.346 38.844C222.738 39.504 223.812 40.398 224.568 41.526C225.336 42.654 225.72 43.926 225.72 45.342C225.72 46.458 225.426 47.268 224.838 47.772C224.262 48.264 223.458 48.51 222.426 48.51C222.006 48.51 221.622 48.48 221.274 48.42C220.938 48.36 220.596 48.288 220.248 48.204ZM245.966 58.284C245.966 59.868 245.714 61.068 245.21 61.884C244.718 62.7 243.71 63.108 242.186 63.108H232.61C231.578 63.108 230.768 62.808 230.18 62.208C229.592 61.608 229.298 60.786 229.298 59.742V38.664L229.55 38.412H245.066C245.15 38.844 245.204 39.252 245.228 39.636C245.252 40.008 245.264 40.356 245.264 40.68C245.264 41.004 245.222 41.406 245.138 41.886C245.066 42.354 244.952 42.804 244.796 43.236H237.434C237.17 43.236 236.81 43.236 236.354 43.236C235.91 43.224 235.448 43.212 234.968 43.2C234.968 43.692 234.974 44.136 234.986 44.532C234.998 44.916 235.004 45.348 235.004 45.828V48.33C235.484 48.318 235.946 48.312 236.39 48.312C236.834 48.3 237.182 48.294 237.434 48.294H242.924C243.044 48.642 243.128 49.044 243.176 49.5C243.236 49.956 243.266 50.34 243.266 50.652C243.266 50.976 243.236 51.354 243.176 51.786C243.128 52.218 243.044 52.62 242.924 52.992H237.434C237.182 52.992 236.834 52.992 236.39 52.992C235.946 52.98 235.484 52.968 235.004 52.956V55.728C235.004 56.196 234.998 56.628 234.986 57.024C234.974 57.408 234.968 57.84 234.968 58.32V58.356C235.376 58.332 235.796 58.314 236.228 58.302C236.66 58.29 237.128 58.284 237.632 58.284H245.966Z" fill="white"/>
</svg>
