<svg width="39" height="38" viewBox="0 0 39 38" fill="none" xmlns="http://www.w3.org/2000/svg">
<g clip-path="url(#clip0_3_558)">
<path d="M19.9394 4.74742H20.1507C22.103 4.75455 31.9949 4.8258 34.662 5.54305C35.4683 5.76195 36.203 6.18862 36.7927 6.78044C37.3825 7.37226 37.8066 8.10848 38.0226 8.91555C38.2625 9.81805 38.4311 11.0127 38.5451 12.2453L38.5689 12.4923L38.6211 13.1098L38.6401 13.3568C38.7945 15.5275 38.8135 17.5605 38.8159 18.0047V18.1828C38.8135 18.6435 38.7921 20.8143 38.6211 23.0753L38.6021 23.3247L38.5807 23.5717C38.462 24.9302 38.2862 26.2792 38.0226 27.2719C37.8072 28.0793 37.3833 28.8159 36.7935 29.4078C36.2037 29.9997 35.4686 30.4262 34.662 30.6444C31.907 31.3854 21.4356 31.4377 19.9845 31.44H19.6472C18.9134 31.44 15.8781 31.4258 12.6956 31.3165L12.2919 31.3023L12.0852 31.2928L11.6791 31.2762L11.273 31.2595C8.63674 31.1432 6.12636 30.9555 4.96974 30.642C4.1634 30.424 3.42852 29.9979 2.83871 29.4064C2.2489 28.815 1.82487 28.0789 1.60911 27.2719C1.34549 26.2815 1.16974 24.9302 1.05099 23.5717L1.03199 23.3223L1.01299 23.0753C0.895775 21.466 0.830824 19.8533 0.818237 18.2398L0.818237 17.9477C0.822987 17.437 0.841987 15.6724 0.970237 13.7249L0.986862 13.4803L0.993987 13.3568L1.01299 13.1098L1.06524 12.4923L1.08899 12.2453C1.20299 11.0127 1.37161 9.81567 1.61149 8.91555C1.82688 8.10816 2.25075 7.37158 2.84058 6.77967C3.43041 6.18775 4.16549 5.76129 4.97211 5.54305C6.12874 5.2343 8.63911 5.0443 11.2754 4.92555L11.6791 4.90892L12.0876 4.89467L12.2919 4.88755L12.698 4.87092C14.9583 4.79819 17.2195 4.75781 19.481 4.7498H19.9394V4.74742ZM16.0182 12.3712V23.8139L25.8911 18.0949L16.0182 12.3712Z" fill="white"/>
</g>
<defs>
<clipPath id="clip0_3_558">
<rect width="38" height="38" fill="white" transform="translate(0.818176)"/>
</clipPath>
</defs>
</svg>
