<svg width="39" height="38" viewBox="0 0 39 38" fill="none" xmlns="http://www.w3.org/2000/svg">
<g clip-path="url(#clip0_3_556)">
<path d="M19.2727 0C14.1166 0 13.4682 0.02375 11.4424 0.114C9.41649 0.209 8.03661 0.52725 6.82774 0.9975C5.55971 1.47445 4.41115 2.22259 3.46236 3.18963C2.49592 4.1389 1.74787 5.28732 1.27024 6.555C0.799986 7.7615 0.479361 9.14375 0.386736 11.1625C0.296486 13.1931 0.272736 13.8391 0.272736 19.0024C0.272736 24.1609 0.296486 24.8069 0.386736 26.8328C0.481736 28.8563 0.799986 30.2361 1.27024 31.445C1.75711 32.6942 2.40549 33.7535 3.46236 34.8104C4.51686 35.8672 5.57611 36.518 6.82536 37.0025C8.03661 37.4728 9.41411 37.7934 11.4376 37.886C13.4659 37.9762 14.1119 38 19.2727 38C24.4336 38 25.0772 37.9762 27.1055 37.886C29.1266 37.791 30.5112 37.4728 31.7201 37.0025C32.9873 36.5253 34.1351 35.7772 35.0831 34.8104C36.14 33.7535 36.7884 32.6942 37.2752 31.445C37.7431 30.2361 38.0637 28.8563 38.1587 26.8328C38.249 24.8069 38.2727 24.1609 38.2727 19C38.2727 13.8391 38.249 13.1931 38.1587 11.1649C38.0637 9.14375 37.7431 7.7615 37.2752 6.555C36.7977 5.28729 36.0496 4.13885 35.0831 3.18963C34.1346 2.22223 32.986 1.47403 31.7177 0.9975C30.5065 0.52725 29.1242 0.206625 27.1031 0.114C25.0749 0.02375 24.4312 0 19.268 0H19.2751H19.2727ZM17.5699 3.42475H19.2751C24.3481 3.42475 24.949 3.44138 26.9511 3.534C28.8036 3.61713 29.8106 3.92825 30.4804 4.18713C31.3662 4.5315 32.0004 4.94475 32.6654 5.60975C33.3304 6.27475 33.7412 6.9065 34.0856 7.79475C34.3469 8.46212 34.6556 9.46913 34.7387 11.3216C34.8314 13.3238 34.8504 13.9246 34.8504 18.9953C34.8504 24.0659 34.8314 24.6691 34.7387 26.6712C34.6556 28.5237 34.3445 29.5284 34.0856 30.1981C33.781 31.0231 33.2948 31.769 32.663 32.3807C31.998 33.0457 31.3662 33.4566 30.478 33.801C29.813 34.0623 28.806 34.371 26.9511 34.4565C24.949 34.5467 24.3481 34.5681 19.2751 34.5681C14.2021 34.5681 13.5989 34.5467 11.5967 34.4565C9.74424 34.371 8.73961 34.0623 8.06986 33.801C7.24455 33.4968 6.49791 33.0115 5.88486 32.3807C5.25252 31.7681 4.76558 31.0214 4.45986 30.1957C4.20099 29.5284 3.88986 28.5214 3.80674 26.6689C3.71649 24.6667 3.69749 24.0659 3.69749 18.9905C3.69749 13.9175 3.71649 13.319 3.80674 11.3169C3.89224 9.46437 4.20099 8.45738 4.46224 7.78763C4.80661 6.90175 5.21986 6.26762 5.88486 5.60262C6.54986 4.93762 7.18161 4.52675 8.06986 4.18237C8.73961 3.92113 9.74424 3.61238 11.5967 3.52688C13.3495 3.44613 14.0287 3.42238 17.5699 3.42V3.42475ZM29.4164 6.57875C29.1169 6.57875 28.8205 6.63772 28.5438 6.75231C28.2672 6.86689 28.0159 7.03483 27.8042 7.24655C27.5924 7.45826 27.4245 7.70961 27.3099 7.98623C27.1953 8.26285 27.1364 8.55934 27.1364 8.85875C27.1364 9.15816 27.1953 9.45465 27.3099 9.73127C27.4245 10.0079 27.5924 10.2592 27.8042 10.471C28.0159 10.6827 28.2672 10.8506 28.5438 10.9652C28.8205 11.0798 29.1169 11.1388 29.4164 11.1388C30.0211 11.1388 30.601 10.8985 31.0286 10.471C31.4561 10.0434 31.6964 9.46344 31.6964 8.85875C31.6964 8.25406 31.4561 7.67413 31.0286 7.24655C30.601 6.81896 30.0211 6.57875 29.4164 6.57875ZM19.2751 9.2435C17.9809 9.22331 16.6956 9.46078 15.4941 9.94209C14.2925 10.4234 13.1987 11.1389 12.2763 12.047C11.354 12.9551 10.6215 14.0376 10.1215 15.2315C9.62149 16.4254 9.364 17.7068 9.364 19.0012C9.364 20.2956 9.62149 21.577 10.1215 22.7709C10.6215 23.9648 11.354 25.0473 12.2763 25.9554C13.1987 26.8635 14.2925 27.579 15.4941 28.0603C16.6956 28.5416 17.9809 28.7791 19.2751 28.7589C21.8366 28.7189 24.2797 27.6733 26.0771 25.8477C27.8744 24.0221 28.8817 21.563 28.8817 19.0012C28.8817 16.4393 27.8744 13.9802 26.0771 12.1547C24.2797 10.3291 21.8366 9.28346 19.2751 9.2435ZM19.2751 12.6659C20.955 12.6659 22.5661 13.3332 23.754 14.5211C24.9419 15.709 25.6092 17.3201 25.6092 19C25.6092 20.6799 24.9419 22.291 23.754 23.4789C22.5661 24.6668 20.955 25.3341 19.2751 25.3341C17.5952 25.3341 15.9841 24.6668 14.7962 23.4789C13.6083 22.291 12.941 20.6799 12.941 19C12.941 17.3201 13.6083 15.709 14.7962 14.5211C15.9841 13.3332 17.5952 12.6659 19.2751 12.6659Z" fill="white"/>
</g>
<defs>
<clipPath id="clip0_3_556">
<rect width="38" height="38" fill="white" transform="translate(0.272736)"/>
</clipPath>
</defs>
</svg>
