<svg width="39" height="38" viewBox="0 0 39 38" fill="none" xmlns="http://www.w3.org/2000/svg">
<g clip-path="url(#clip0_3_554)">
<path d="M12.4822 35.6249C26.8224 35.6249 34.667 23.7427 34.667 13.4566C34.667 13.1241 34.667 12.7869 34.6528 12.4544C36.18 11.3488 37.4982 9.97997 38.5454 8.41211C37.1188 9.04113 35.607 9.4557 34.059 9.64236C35.6896 8.66775 36.9108 7.13429 37.4957 5.32699C35.9638 6.23453 34.2871 6.87162 32.539 7.21036C31.3638 5.95879 29.8087 5.12967 28.1146 4.85141C26.4205 4.57315 24.6819 4.8613 23.1681 5.67121C21.6543 6.48112 20.4498 7.7676 19.7412 9.33138C19.0326 10.8952 18.8595 12.649 19.2485 14.3211C16.1485 14.1657 13.1158 13.3603 10.3471 11.9574C7.57843 10.5544 5.13554 8.58511 3.17691 6.17724C2.18259 7.89456 1.87915 9.92594 2.32819 11.8589C2.77724 13.7918 3.94512 15.4814 5.59466 16.5845C4.35857 16.5425 3.14965 16.2106 2.06541 15.6155V15.7224C2.06754 17.5214 2.69076 19.2645 3.82974 20.657C4.96871 22.0496 6.55356 23.0062 8.31641 23.3651C7.64728 23.5494 6.95608 23.6413 6.26204 23.6382C5.77275 23.6397 5.28444 23.5944 4.80379 23.5029C5.30203 25.0515 6.27218 26.4055 7.57837 27.3752C8.88456 28.345 10.4614 28.8819 12.0879 28.9107C9.32473 31.081 5.91149 32.2581 2.39791 32.2524C1.7788 32.255 1.16012 32.2193 0.54541 32.1455C4.11151 34.419 8.25299 35.6262 12.4822 35.6249Z" fill="white"/>
</g>
<defs>
<clipPath id="clip0_3_554">
<rect width="38" height="38" fill="white" transform="translate(0.545471)"/>
</clipPath>
</defs>
</svg>
