<svg width="38" height="38" viewBox="0 0 38 38" fill="none" xmlns="http://www.w3.org/2000/svg">
<g clip-path="url(#clip0_3_550)">
<mask id="mask0_3_550" style="mask-type:alpha" maskUnits="userSpaceOnUse" x="-1" y="-1" width="39" height="40">
<path d="M37.9978 19.1154C37.9978 8.55617 29.4905 -0.00332642 18.9978 -0.00332642C8.50026 -0.000951416 -0.00698853 8.55618 -0.00698853 19.1178C-0.00698853 28.6582 6.94226 36.5669 16.0243 38.0014V24.642H11.203V19.1178H16.029V14.9022C16.029 10.1118 18.8671 7.46605 23.2063 7.46605C25.2868 7.46605 27.4599 7.83892 27.4599 7.83892V12.5414H25.0635C22.7051 12.5414 21.9689 14.0163 21.9689 15.5292V19.1154H27.2366L26.3959 24.6397H21.9665V37.999C31.0485 36.5645 37.9978 28.6558 37.9978 19.1154Z" fill="#266156"/>
</mask>
<g mask="url(#mask0_3_550)">
<rect width="39.6267" height="39.6267" fill="white"/>
</g>
</g>
<defs>
<clipPath id="clip0_3_550">
<rect width="38" height="38" fill="white"/>
</clipPath>
</defs>
</svg>
